<?xml version="1.0" encoding="UTF-8"?>
<svg id="Layer_1" xmlns="http://www.w3.org/2000/svg" xmlns:xlink="http://www.w3.org/1999/xlink" version="1.1" viewBox="0 0 960.73 168.28">
  <!-- Generator: Adobe Illustrator 30.5.1, SVG Export Plug-In . SVG Version: 2.1.4 Build 3)  -->
  <defs>
    <style>
      .st0 {
        fill: url(#linear-gradient);
      }

      .st1 {
        fill: #2e60b2;
      }

      .st2 {
        fill: #08d3fa;
      }
    </style>
    <linearGradient id="linear-gradient" x1="27.63" y1="32.69" x2="134.9" y2="143.19" gradientUnits="userSpaceOnUse">
      <stop offset=".32" stop-color="#14387f"/>
      <stop offset="1" stop-color="#08d3fa"/>
    </linearGradient>
  </defs>
  <g>
    <path class="st2" d="M192.66,42.71h34.93c18.87,0,28.3,8.4,28.3,22.55,0,10.17-4.42,17.39-13.12,20.63v.3c11.94,2.65,17.69,9.73,17.69,21.08,0,13.41-8.7,23.88-28.89,23.88h-38.91V42.71ZM203.28,52.15v30.21h23.88c10.76,0,18.13-4.27,18.13-15.62,0-9.14-5.45-14.59-17.24-14.59h-24.76ZM203.28,91.06v30.66h27.86c12.97,0,18.57-6.93,18.57-15.33,0-9.14-6.04-15.33-19.31-15.33h-27.12Z"/>
    <path class="st2" d="M269.31,131.15V42.71h10.61v88.43h-10.61Z"/>
    <path class="st2" d="M305.41,93.71h-1.03v37.44h-10.61V42.71h10.61v41.86h1.03l44.51-41.86h13.12v.3l-49.37,45.54,51.88,42.3v.29h-14l-46.13-37.44Z"/>
    <path class="st2" d="M369.97,42.71h59.25v10.17h-48.64v28.15h43.63v10.02h-43.63v29.92h48.78v10.17h-59.4V42.71Z"/>
  </g>
  <g>
    <path class="st1" d="M443.77,131.15V42.71h26.45v88.43h-26.45Z"/>
    <path class="st1" d="M597.81,131.15v-47.64c0-13.86-4.46-18.96-13.54-18.96-10.04,0-14.66,6.06-14.66,17.69v48.92h-26.45v-48.76c0-11.47-4.14-17.85-13.23-17.85-10.36,0-14.98,6.69-14.98,18.96v47.64h-26.45V42.71h24.7v9.4h.32c4.62-8.29,13.07-12.43,24.38-12.43s19.92,5.74,25.49,15.77c6.37-10.04,15.93-15.77,28.04-15.77,19.76,0,32.82,12.11,32.82,36.81v54.65h-26.45Z"/>
    <path class="st1" d="M640.37,131.15V13.24h26.45v36.49c7.01-7.49,15.93-10.04,25.17-10.04,22.94,0,43.98,17.21,43.98,46.69,0,27.25-17.37,47.8-44.61,47.8-10.68,0-21.35-4.94-25.33-12.43h-.32v9.4h-25.33ZM709.53,86.85c0-11.79-9.08-22.47-21.83-22.47s-21.83,10.04-21.83,22.31c0,13.07,9.24,22.79,21.51,22.79s22.15-9.88,22.15-22.63Z"/>
    <path class="st1" d="M804.31,131.15v-9.4h-.32c-3.82,8.13-10.83,12.27-22.79,12.27-18.64,0-34.1-11.15-34.1-36.33v-54.97h26.45v49.55c0,11.63,4.14,17.05,14.18,17.05s15.14-6.69,15.14-17.53v-49.08h26.45v88.43h-25.02Z"/>
    <path class="st1" d="M886.05,67.57c-.16-5.1-3.82-6.69-8.13-6.69s-7.65,2.55-7.65,5.9c0,4.78,4.3,7.17,16.57,10.36,21.03,5.58,27.88,14.02,27.88,26.93,0,18.48-15.93,30.12-36.01,30.12s-34.1-11.31-36.01-29.32h26.29c.8,5.58,4.78,8.13,10.04,8.13,4.62,0,9.24-2.71,9.24-6.85,0-4.94-3.03-7.49-16.25-11.63-22.31-6.85-28.2-15.62-28.2-25.97,0-17.53,16.41-28.84,34.26-28.84,19.12,0,32.66,10.52,33.94,27.88h-25.97Z"/>
  </g>
  <path class="st1" d="M957.48,103.75l-10.55-6.09c-2.01-1.16-4.49-1.16-6.51,0l-10.55,6.09c-2.01,1.16-3.25,3.31-3.25,5.64v12.18c0,2.33,1.24,4.47,3.25,5.64l10.55,6.09c2.01,1.16,4.49,1.16,6.51,0l10.55-6.09c2.01-1.16,3.25-3.31,3.25-5.64v-12.18c0-2.33-1.24-4.47-3.25-5.64Z"/>
  <path class="st0" d="M137.58,29.21L95.15,4.71c-10.87-6.28-24.27-6.28-35.14,0L17.57,29.21C6.7,35.48,0,47.09,0,59.64v49c0,12.56,6.7,24.16,17.57,30.44l42.43,24.5c10.87,6.28,24.27,6.28,35.14,0l42.43-24.5c10.87-6.28,17.57-17.88,17.57-30.44v-49c0-12.56-6.7-24.16-17.57-30.44ZM78.31,140.02c-30.16,0-54.61-24.45-54.61-54.61s24.45-54.61,54.61-54.61,54.61,24.45,54.61,54.61-24.45,54.61-54.61,54.61Z"/>
</svg>